<svg width="50" height="50" viewBox="0 0 50 50" fill="none" xmlns="http://www.w3.org/2000/svg">
<circle cx="25" cy="25" r="25" fill="white"/>
<path d="M32.5617 16.413V30.0708C32.5617 30.2798 32.4923 30.4802 32.3687 30.628C32.245 30.7757 32.0773 30.8588 31.9026 30.8588C31.7278 30.8588 31.5601 30.7757 31.4364 30.628C31.3128 30.4802 31.2434 30.2798 31.2434 30.0708V18.3172L18.3015 33.7742C18.1791 33.9204 18.0131 34.0026 17.84 34.0026C17.667 34.0026 17.501 33.9204 17.3786 33.7742C17.2563 33.6279 17.1875 33.4296 17.1875 33.2226C17.1875 33.0157 17.2563 32.8173 17.3786 32.6711L30.3095 17.2009H20.4768C20.302 17.2009 20.1343 17.1179 20.0107 16.9701C19.887 16.8224 19.8176 16.6219 19.8176 16.413C19.8176 16.204 19.887 16.0036 20.0107 15.8558C20.1343 15.708 20.302 15.625 20.4768 15.625H31.9026C32.0773 15.625 32.245 15.708 32.3687 15.8558C32.4923 16.0036 32.5617 16.204 32.5617 16.413Z" fill="#171717"/>
</svg>
