<svg width="16" height="19" viewBox="0 0 16 19" fill="none" xmlns="http://www.w3.org/2000/svg">
<path d="M15.5617 1.41491V15.0728C15.5617 15.2818 15.4923 15.4822 15.3687 15.6299C15.245 15.7777 15.0773 15.8608 14.9026 15.8608C14.7278 15.8608 14.5601 15.7777 14.4364 15.6299C14.3128 15.4822 14.2434 15.2818 14.2434 15.0728V3.31913L1.30148 18.7761C1.17911 18.9224 1.01313 19.0045 0.840047 19.0045C0.666985 19.0045 0.501 18.9224 0.378625 18.7761C0.25625 18.6299 0.1875 18.4315 0.1875 18.2246C0.1875 18.0176 0.25625 17.8193 0.378625 17.673L13.3095 2.20288H3.47677C3.30195 2.20288 3.13428 2.11986 3.01066 1.97208C2.88705 1.8243 2.81759 1.6239 2.81759 1.41491C2.81759 1.20593 2.88705 1.00553 3.01066 0.85775C3.13428 0.709974 3.30195 0.626972 3.47677 0.626953H14.9026C15.0773 0.626972 15.245 0.709974 15.3687 0.85775C15.4923 1.00553 15.5617 1.20593 15.5617 1.41491Z" fill="white"/>
</svg>
