<svg width="20" height="24" viewBox="0 0 20 24" fill="none" xmlns="http://www.w3.org/2000/svg">
<path d="M10.4439 0.612367L19.039 11.2265C19.1706 11.3889 19.2428 11.5883 19.2397 11.7809C19.2365 11.9736 19.1585 12.1437 19.0227 12.2537C18.8869 12.3637 18.7043 12.4046 18.5151 12.3677C18.3261 12.3306 18.1461 12.2186 18.0145 12.0561L10.6177 2.92184L10.2874 23.0788C10.2843 23.2695 10.207 23.4378 10.0725 23.5467C9.93802 23.6556 9.75731 23.6962 9.57017 23.6596C9.38303 23.6229 9.20478 23.512 9.07454 23.3512C8.94431 23.1904 8.87291 22.993 8.87598 22.8023L9.18947 2.64207L1.548 8.83001C1.41215 8.94003 1.22959 8.98103 1.04052 8.94398C0.851459 8.90693 0.671363 8.79489 0.539847 8.63248C0.40833 8.47007 0.336185 8.27062 0.339249 8.07799C0.342325 7.88534 0.420396 7.71532 0.556239 7.60529L9.4358 0.414766C9.57157 0.304846 9.7541 0.263842 9.94327 0.300806C10.1323 0.33787 10.3123 0.449958 10.4439 0.612367Z" fill="white"/>
</svg>
