<svg width="16" height="19" viewBox="0 0 16 19" fill="none" xmlns="http://www.w3.org/2000/svg">
<path d="M15.5617 1.41296V15.0708C15.5617 15.2798 15.4923 15.4802 15.3687 15.628C15.245 15.7757 15.0773 15.8588 14.9026 15.8588C14.7278 15.8588 14.5601 15.7757 14.4364 15.628C14.3128 15.4802 14.2434 15.2798 14.2434 15.0708V3.31718L1.30148 18.7742C1.17911 18.9204 1.01313 19.0026 0.840047 19.0026C0.666985 19.0026 0.501 18.9204 0.378625 18.7742C0.25625 18.6279 0.1875 18.4296 0.1875 18.2226C0.1875 18.0157 0.25625 17.8173 0.378625 17.6711L13.3095 2.20092H3.47677C3.30195 2.20092 3.13428 2.1179 3.01066 1.97013C2.88705 1.82235 2.81759 1.62194 2.81759 1.41296C2.81759 1.20398 2.88705 1.00357 3.01066 0.855797C3.13428 0.708021 3.30195 0.625019 3.47677 0.625H14.9026C15.0773 0.625019 15.245 0.708021 15.3687 0.855797C15.4923 1.00357 15.5617 1.20398 15.5617 1.41296Z" fill="white"/>
</svg>
